<?xml version="1.0" standalone="no"?>
<!DOCTYPE svg PUBLIC "-//W3C//DTD SVG 20010904//EN"
 "http://www.w3.org/TR/2001/REC-SVG-20010904/DTD/svg10.dtd">
<svg version="1.0" xmlns="http://www.w3.org/2000/svg"
 width="740.000000pt" height="740.000000pt" viewBox="0 0 740.000000 740.000000"
 preserveAspectRatio="xMidYMid meet">

<g transform="translate(0.000000,740.000000) scale(0.100000,-0.100000)"
fill="#000000" stroke="none">
<path d="M1699 6644 c-10 -12 -15 -52 -17 -131 l-4 -113 -328 0 -328 0 -48
-32 c-31 -22 -58 -52 -78 -88 l-31 -55 -3 -2640 c-2 -1869 0 -2655 8 -2691 12
-56 55 -116 101 -140 27 -13 327 -15 2709 -14 1840 0 2688 4 2707 11 48 18 88
55 118 110 l30 54 3 2640 c2 1869 0 2655 -8 2691 -6 29 -23 66 -41 87 -57 69
-55 69 -405 67 -172 0 -325 2 -338 6 -25 6 -25 7 -28 127 -3 109 -5 122 -22
125 -33 7 -41 -16 -46 -129 -4 -82 -9 -112 -20 -119 -18 -12 -869 -13 -887 -2
-8 5 -13 47 -15 127 -3 113 -4 120 -24 123 -37 5 -48 -23 -54 -142 l-5 -111
-450 0 -450 0 -2 105 c-4 129 -8 150 -32 150 -36 0 -46 -28 -49 -141 l-4 -109
-432 0 c-237 0 -441 -3 -453 -6 -22 -6 -22 -5 -25 122 l-3 129 -25 0 c-38 0
-50 -36 -50 -152 l0 -103 -455 0 c-357 0 -455 3 -456 13 0 6 -1 64 -2 127 -2
108 -3 115 -23 118 -11 2 -27 -5 -35 -14z m-19 -447 l0 -114 -39 -18 c-121
-54 -178 -215 -119 -333 46 -94 161 -137 263 -98 56 22 127 99 144 157 38 128
-4 230 -116 281 l-64 29 3 102 3 102 458 3 457 2 0 -113 0 -114 -39 -18 c-141
-63 -189 -273 -88 -384 54 -58 165 -78 242 -42 48 21 108 86 130 138 24 58 21
146 -7 201 -26 51 -57 77 -114 97 l-39 13 -3 111 -3 111 455 0 455 0 3 -111 3
-111 -45 -23 c-210 -107 -179 -424 44 -443 120 -10 217 65 251 193 29 111 -14
205 -115 252 l-60 28 0 108 0 107 455 0 455 0 0 -114 0 -114 -32 -13 c-165
-68 -202 -315 -61 -413 87 -61 206 -44 283 40 53 57 71 101 71 172 1 102 -40
167 -126 203 l-55 23 0 108 0 108 454 0 454 0 6 -22 c3 -13 6 -62 6 -110 l0
-88 -47 -24 c-93 -47 -143 -128 -143 -231 0 -130 82 -215 207 -215 63 1 119
27 165 78 49 54 69 104 70 174 1 99 -48 172 -138 203 l-39 13 -3 111 -3 111
319 0 c314 0 320 0 352 -22 18 -13 43 -36 54 -51 21 -28 21 -39 24 -513 l3
-484 -2771 0 -2770 0 0 484 c0 333 4 493 11 515 7 18 26 41 43 52 29 18 54 19
364 19 l332 0 0 -113z m14 -326 c23 -19 55 17 57 64 3 55 6 58 41 38 70 -41
103 -146 64 -206 -41 -62 -154 -74 -221 -23 -93 71 -90 190 6 239 l34 17 3
-59 c2 -34 9 -64 16 -70z m978 66 c-3 -38 0 -56 11 -65 25 -21 58 15 64 71 l6
46 28 -15 c47 -24 79 -81 79 -140 0 -45 -4 -56 -32 -83 -96 -93 -268 -16 -270
121 0 25 7 50 19 67 20 26 81 64 93 56 3 -2 5 -28 2 -58z m997 -4 c3 -68 9
-78 39 -58 15 11 23 31 28 65 l6 49 29 -14 c75 -40 106 -163 54 -219 -57 -62
-156 -61 -229 3 -49 43 -63 133 -29 180 20 26 81 64 93 56 4 -2 8 -30 9 -62z
m990 -15 c1 -55 11 -64 41 -40 15 12 24 33 27 65 l6 46 28 -15 c47 -24 79 -81
79 -140 0 -45 -4 -56 -32 -83 -53 -52 -140 -54 -204 -6 -91 70 -86 200 10 240
37 16 44 6 45 -67z m983 20 c-3 -39 0 -57 11 -66 25 -21 58 15 64 71 l6 46 28
-15 c68 -35 103 -147 65 -207 -42 -63 -153 -75 -221 -23 -93 71 -91 189 5 238
18 9 36 15 40 13 4 -2 5 -28 2 -57z m826 -2550 l2 -1757 -348 -3 -349 -3 -35
-27 c-67 -51 -68 -57 -68 -432 l0 -336 -2314 0 -2313 0 -33 22 c-18 13 -43 36
-54 51 l-21 28 -3 2097 c-1 1153 0 2103 3 2110 3 10 562 12 2767 10 l2763 -3
3 -1757z m-68 -1855 c0 -5 -148 -157 -330 -338 l-330 -330 0 328 0 328 23 8
c28 11 637 15 637 4z m70 -323 c0 -310 -4 -336 -59 -364 -25 -14 -77 -16 -323
-16 l-293 0 330 330 c181 182 333 330 337 330 5 0 8 -126 8 -280z"/>
<path d="M1425 4665 c-50 -18 -100 -71 -114 -122 -7 -23 -11 -153 -11 -326 0
-311 3 -329 55 -377 l27 -25 371 -3 c426 -3 417 -4 472 83 l30 48 0 316 c0
452 34 421 -458 421 -260 -1 -341 -4 -372 -15z m695 -88 c24 -8 41 -23 53 -47
16 -31 17 -64 15 -318 -3 -268 -4 -284 -22 -298 -16 -11 -84 -14 -374 -14
l-354 0 -34 34 -34 34 0 289 c0 264 2 291 18 305 9 9 24 18 32 21 32 12 664 6
700 -6z"/>
<path d="M2705 4665 c-50 -18 -100 -71 -114 -122 -14 -49 -15 -585 -1 -634 5
-19 24 -48 41 -65 l30 -29 372 -3 c426 -3 417 -4 472 83 l30 48 0 316 c0 361
-1 367 -78 402 -39 17 -69 19 -377 18 -263 0 -344 -3 -375 -14z m695 -88 c66
-23 70 -44 70 -359 0 -265 -1 -279 -20 -298 -19 -19 -33 -20 -375 -20 l-355 0
-32 29 -33 29 -3 286 c-3 300 -1 319 41 336 35 14 665 11 707 -3z"/>
<path d="M3987 4665 c-45 -15 -82 -47 -105 -90 -15 -26 -17 -73 -20 -326 -2
-186 1 -311 7 -336 6 -21 25 -52 41 -68 l31 -30 382 0 382 0 33 23 c18 13 42
42 55 65 21 41 22 50 22 357 0 359 -1 366 -78 401 -39 17 -69 19 -377 18 -258
0 -344 -3 -373 -14z m693 -88 c66 -23 70 -44 70 -359 0 -265 -1 -279 -20 -298
-19 -19 -33 -20 -375 -20 l-355 0 -32 29 -33 29 -3 286 c-3 300 -1 319 41 336
35 14 665 11 707 -3z"/>
<path d="M5265 4665 c-56 -20 -102 -75 -115 -141 -7 -33 -10 -154 -8 -331 3
-309 6 -324 71 -364 31 -18 49 -19 403 -17 l371 3 35 27 c71 54 73 65 73 418
0 359 -1 366 -78 401 -39 17 -69 19 -377 18 -262 0 -344 -3 -375 -14z m688
-86 c26 -7 44 -21 57 -42 19 -30 20 -52 20 -314 0 -270 -1 -284 -20 -303 -19
-19 -33 -20 -375 -20 l-355 0 -32 29 -33 29 -3 286 c-3 300 -1 319 41 336 32
13 654 12 700 -1z"/>
<path d="M1425 3415 c-51 -18 -101 -72 -115 -125 -7 -27 -10 -142 -8 -339 3
-329 4 -330 71 -371 30 -19 53 -20 391 -20 l359 0 41 24 c24 14 52 42 66 68
l25 43 0 315 c0 359 -1 366 -78 401 -39 17 -69 19 -377 18 -263 0 -344 -3
-375 -14z m688 -86 c71 -19 72 -26 72 -357 0 -279 -1 -294 -19 -308 -16 -11
-84 -14 -374 -14 l-354 0 -34 34 -34 34 0 289 c0 264 2 291 18 305 9 9 24 18
32 21 28 10 654 7 693 -4z"/>
<path d="M2705 3415 c-51 -18 -101 -72 -115 -125 -7 -27 -10 -142 -8 -339 3
-329 4 -330 71 -371 30 -19 53 -20 390 -20 413 0 413 0 464 87 l28 48 0 315
c0 359 -1 366 -78 401 -39 17 -69 19 -377 18 -263 0 -344 -3 -375 -14z m701
-90 c60 -25 64 -47 64 -360 0 -262 -1 -276 -20 -295 -19 -19 -33 -20 -375 -20
l-355 0 -32 29 -33 29 -3 286 c-3 300 -1 319 41 336 12 5 170 9 350 9 266 1
334 -2 363 -14z"/>
<path d="M3975 3411 c-46 -20 -91 -69 -103 -109 -4 -15 -7 -167 -7 -337 0
-345 0 -344 68 -385 30 -19 53 -20 390 -20 413 0 413 0 464 87 l28 48 0 310
c0 341 -2 358 -59 398 -30 22 -37 22 -386 25 -328 2 -358 1 -395 -17z m711
-86 c60 -25 64 -47 64 -360 0 -262 -1 -276 -20 -295 -19 -19 -33 -20 -375 -20
l-355 0 -32 29 -33 29 -3 286 c-3 300 -1 319 41 336 12 5 170 9 350 9 266 1
334 -2 363 -14z"/>
<path d="M5255 3411 c-46 -20 -91 -69 -103 -109 -4 -15 -7 -164 -7 -332 0
-339 2 -350 68 -391 31 -18 49 -19 402 -17 370 3 370 3 403 26 18 13 42 42 55
65 21 41 22 51 22 352 0 341 -2 358 -59 398 -30 22 -37 22 -386 25 -328 2
-358 1 -395 -17z m710 -85 c62 -26 65 -42 65 -356 0 -267 -1 -281 -20 -300
-19 -19 -33 -20 -375 -20 l-355 0 -32 29 -33 29 -3 286 c-3 300 -1 319 41 336
12 5 170 9 350 9 262 1 334 -2 362 -13z"/>
<path d="M1432 2173 c-39 -8 -109 -83 -122 -131 -7 -29 -10 -139 -8 -341 3
-329 4 -330 71 -371 30 -19 53 -20 386 -20 404 0 411 1 463 81 36 56 40 99 36
414 -3 295 -6 311 -65 351 -26 18 -52 19 -383 20 -195 1 -365 0 -378 -3z m694
-98 c62 -25 65 -48 62 -367 -3 -263 -4 -280 -22 -294 -16 -11 -84 -14 -374
-14 l-354 0 -34 34 -34 34 0 288 c0 159 4 294 8 300 20 31 51 33 380 34 270 0
339 -3 368 -15z"/>
<path d="M2695 2161 c-51 -23 -91 -70 -105 -122 -7 -26 -10 -146 -8 -338 3
-329 4 -330 71 -371 30 -19 53 -20 391 -20 l359 0 41 24 c24 14 52 42 66 68
l25 43 0 315 c0 453 36 420 -455 420 -313 0 -349 -2 -385 -19z m711 -86 c60
-25 64 -47 64 -360 0 -262 -1 -276 -20 -295 -19 -19 -33 -20 -375 -20 l-355 0
-32 29 -33 29 -3 291 -3 291 25 25 25 25 336 0 c272 0 342 -3 371 -15z"/>
<path d="M3975 2161 c-50 -22 -91 -69 -105 -119 -6 -21 -10 -156 -10 -322 0
-259 2 -289 20 -327 11 -25 33 -51 52 -63 31 -19 50 -20 392 -20 l359 0 41 24
c24 14 52 42 66 68 l25 43 0 315 c0 453 36 420 -455 420 -313 0 -349 -2 -385
-19z m711 -86 c60 -25 64 -47 64 -360 0 -262 -1 -276 -20 -295 -19 -19 -33
-20 -375 -20 l-355 0 -32 29 -33 29 -3 291 -3 291 25 25 25 25 336 0 c272 0
342 -3 371 -15z"/>
</g>
</svg>
